<svg width="112" height="32" viewBox="0 0 112 32" fill="none" xmlns="http://www.w3.org/2000/svg">
<path d="M5.79462 0.110725C3.50306 1.07249 0.984243 3.78612 0.188655 7.19492C-0.819046 11.5125 3.37364 13.3389 3.7178 12.7409C4.12251 12.0374 2.96652 11.7996 2.72853 9.5591C2.421 6.66547 3.76365 3.43227 5.45353 2.01359C5.7672 1.74985 5.75251 2.11688 5.75251 2.79535C5.75251 4.00876 5.68561 14.902 5.68561 17.1754C5.68561 20.2514 5.55882 21.2229 5.33091 22.1829C5.10038 23.1554 4.72923 23.8128 5.01022 24.066C5.32433 24.349 6.66545 23.6754 7.44173 22.5899C8.37266 21.2879 8.69862 19.724 8.75719 18.0262C8.82782 15.9791 8.82475 12.7308 8.82782 10.878C8.83045 9.17888 8.85633 4.20326 8.79799 1.21205C8.78373 0.477979 6.75297 -0.291694 5.79462 0.110725Z" fill="white"/>
<path d="M87.1633 14.5071C87.0894 16.1064 86.736 17.3563 86.2975 18.2381C85.4486 19.9451 83.6872 20.475 82.9393 18.0214C82.5317 16.6838 82.5126 14.45 82.8055 12.5834C83.1038 10.682 83.9369 9.24598 85.3159 9.37543C86.6764 9.50357 87.3131 11.2598 87.1633 14.5073V14.5071ZM64.2301 24.4293C64.2117 27.0865 63.7942 29.4162 62.8993 30.0931C61.6297 31.0526 59.9234 30.3326 60.2767 28.3937C60.5893 26.6779 62.0679 24.9256 64.2338 22.7845C64.2338 22.7845 64.2382 23.2728 64.2301 24.4293ZM63.8835 14.4915C63.8059 15.9482 63.429 17.4113 63.0177 18.2381C62.1689 19.9451 60.3947 20.4788 59.6595 18.0214C59.1567 16.3423 59.2771 14.1695 59.5257 12.8003C59.8485 11.0238 60.6312 9.37565 62.0361 9.37565C63.4023 9.37565 64.0761 10.8774 63.8835 14.4915ZM50.5985 14.4695C50.5151 16.0119 50.2148 17.3014 49.7329 18.2381C48.8608 19.9335 47.1354 20.4711 46.3747 18.0214C45.8261 16.255 46.0127 13.8467 46.2408 12.5456C46.5795 10.6148 47.4275 9.24598 48.7513 9.37565C50.1111 9.50884 50.772 11.2598 50.5985 14.4695ZM111.48 16.2713C111.148 16.2713 110.996 16.6146 110.87 17.1922C110.435 19.2018 109.978 19.6552 109.388 19.6552C108.729 19.6552 108.136 18.6605 107.984 16.6689C107.864 15.1027 107.884 12.2196 108.037 9.3517C108.068 8.76246 107.906 8.17939 106.328 7.60532C105.65 7.35828 104.663 6.99455 104.172 8.18268C102.784 11.5396 102.241 14.2047 102.113 15.2869C102.106 15.3429 102.038 15.3546 102.026 15.2236C101.944 14.3565 101.762 12.7807 101.739 9.47038C101.735 8.82444 101.599 8.27477 100.887 7.82466C100.425 7.53235 99.0234 7.01587 98.5187 7.63059C98.0813 8.13301 97.5746 9.48554 97.0484 11.0891C96.6207 12.3924 96.3228 13.2737 96.3228 13.2737C96.3228 13.2737 96.3285 9.75763 96.3335 8.42378C96.3357 7.9207 95.9913 7.75301 95.8874 7.72268C95.4202 7.58686 94.4989 7.35982 94.108 7.35982C93.6254 7.35982 93.5074 7.62971 93.5074 8.02356C93.5074 8.07521 93.4313 12.6528 93.4313 15.8537C93.4313 15.9928 93.4313 16.1445 93.4319 16.3058C93.1652 17.777 92.2999 19.7739 91.3588 19.7739C90.4165 19.7739 89.9721 18.9392 89.9721 15.1231C89.9721 12.897 90.0388 11.9288 90.0715 10.3187C90.0906 9.39126 90.1274 8.67917 90.1252 8.51763C90.1182 8.02202 89.2632 7.77213 88.865 7.67982C88.4652 7.58686 88.1177 7.55059 87.8464 7.5662C87.4623 7.58817 87.1905 7.84026 87.1905 8.18752C87.1905 8.37389 87.1927 8.72774 87.1927 8.72774C86.6981 7.94884 85.9025 7.40686 85.3732 7.24971C83.9474 6.82553 82.4598 7.20136 81.3376 8.77477C80.4457 10.0247 79.908 11.4407 79.6964 13.4748C79.5417 14.962 79.5922 16.47 79.8672 17.7454C79.5349 19.1845 78.9183 19.7739 78.2429 19.7739C77.2624 19.7739 76.5517 18.1708 76.6342 15.3977C76.6886 13.5737 77.053 12.2937 77.4511 10.4418C77.6209 9.65236 77.4829 9.23917 77.137 8.84312C76.8196 8.47983 76.1433 8.29411 75.1716 8.52224C74.4793 8.6851 73.4894 8.86027 72.5837 8.99477C72.5837 8.99477 72.6385 8.77609 72.6833 8.39103C72.9188 6.37125 70.7282 6.53498 70.0291 7.18004C69.6121 7.56532 69.328 8.0196 69.2203 8.83631C69.0493 10.1326 70.1043 10.744 70.1043 10.744C69.7584 12.3317 68.9097 14.4056 68.0337 15.9051C67.5645 16.7084 67.2056 17.3038 66.7421 17.9366C66.727 15.3973 66.7435 12.8578 66.7917 10.319C66.8108 9.39148 66.8478 8.69829 66.8459 8.53653C66.8406 8.17433 66.6294 8.03719 66.19 7.864C65.8013 7.71059 65.342 7.60466 64.8653 7.5673C64.2639 7.5207 63.9015 7.84004 63.9112 8.21807C63.9129 8.2895 63.9129 8.72774 63.9129 8.72774C63.4183 7.94884 62.6227 7.40686 62.0934 7.24971C60.6676 6.82553 59.18 7.20136 58.0578 8.77477C57.1661 10.0247 56.5822 11.779 56.4166 13.4594C56.2626 15.0253 56.2909 16.3561 56.501 17.4774C56.2744 18.6001 55.6225 19.7742 54.8857 19.7742C53.9434 19.7742 53.4073 18.9392 53.4073 15.1231C53.4073 12.897 53.474 11.9288 53.5069 10.3187C53.526 9.39148 53.5626 8.67917 53.5606 8.51763C53.5536 8.02202 52.6983 7.77235 52.3002 7.67982C51.8839 7.58312 51.5244 7.54795 51.2482 7.56839C50.8841 7.59543 50.6279 7.92224 50.6279 8.16598V8.72774C50.1332 7.94884 49.3377 7.40686 48.8084 7.24971C47.3826 6.82553 45.9033 7.20751 44.7727 8.77477C44.0357 9.79653 43.4389 10.9293 43.1318 13.437C43.0429 14.1616 43.0037 14.8405 43.0089 15.4746C42.715 17.2759 41.4164 19.3519 40.3545 19.3519C39.7331 19.3519 39.1411 18.144 39.1411 15.5702C39.1411 12.1416 39.353 7.25982 39.389 6.78949C39.389 6.78949 40.7307 6.76663 40.9904 6.76356C41.6599 6.75608 42.266 6.77213 43.1576 6.72619C43.6047 6.70356 44.0355 5.09542 43.574 4.89652C43.3647 4.80641 41.8865 4.72773 41.3004 4.7152C40.8077 4.70421 39.4359 4.60223 39.4359 4.60223C39.4359 4.60223 39.559 1.362 39.5877 1.0198C39.6118 0.734306 39.2433 0.587493 39.0323 0.498481C38.5186 0.280898 38.059 0.176502 37.5144 0.0639745C36.7616 -0.0916304 36.4203 0.0606778 36.3536 0.696944C36.2531 1.66288 36.2011 4.49212 36.2011 4.49212C35.6488 4.49212 33.7619 4.38399 33.2096 4.38399C32.6963 4.38399 32.1422 6.59586 32.8521 6.62312C33.6685 6.65477 35.0914 6.68246 36.0346 6.71059C36.0346 6.71059 35.9925 11.6728 35.9925 13.2051C35.9925 13.3678 35.9934 13.5249 35.9943 13.6772C35.4751 16.3882 33.6466 17.8528 33.6466 17.8528C34.0392 16.0592 33.237 14.7122 31.7922 13.5719C31.2598 13.1519 30.2089 12.3565 29.0332 11.4849C29.0332 11.4849 29.714 10.8124 30.3181 9.45939C30.7458 8.5007 30.7645 7.40422 29.714 7.16224C27.9785 6.76224 26.5477 8.03938 26.1208 9.40291C25.79 10.4592 25.9664 11.2427 26.6144 12.0568C26.6615 12.1163 26.7131 12.1772 26.7657 12.2383C26.3742 12.9948 25.8359 14.0135 25.3801 14.8034C24.1148 16.9968 23.1591 18.7313 22.4368 18.7313C21.8595 18.7313 21.8671 16.97 21.8671 15.3209C21.8671 13.8994 21.972 11.762 22.0558 9.5495C22.0834 8.81763 21.718 8.4007 21.106 8.02312C20.734 7.79367 19.9401 7.34268 19.4804 7.34268C18.7921 7.34268 16.8065 7.43653 14.9306 12.8739C14.6941 13.5592 14.2295 14.808 14.2295 14.808L14.2697 8.26928C14.2697 8.11587 14.1881 7.96774 14.0014 7.86642C13.6853 7.69433 12.841 7.34268 12.0902 7.34268C11.7327 7.34268 11.5539 7.50927 11.5539 7.84158L11.4885 18.0715C11.4885 18.8489 11.5087 19.7557 11.5855 20.1522C11.6618 20.5491 11.7857 20.8722 11.9389 21.0643C12.0922 21.2561 12.2692 21.4027 12.5612 21.4629C12.8329 21.519 14.321 21.7104 14.3984 21.1407C14.491 20.4577 14.4947 19.7192 15.2761 16.9645C16.4926 12.6757 18.0785 10.5833 18.8243 9.84005C18.9548 9.71038 19.1035 9.70247 19.0963 9.915C19.0647 10.8552 18.9526 13.2051 18.8774 15.2007C18.6754 20.5425 19.6451 21.5326 21.0312 21.5326C22.0915 21.5326 23.5862 20.477 25.1884 17.8049C26.0811 16.3158 26.9697 14.8242 27.8541 13.3302C28.3396 13.7805 28.8846 14.2651 29.4291 14.7829C30.6947 15.9864 31.1102 17.1302 30.8345 18.215C30.6239 19.0443 29.8296 19.899 28.4163 19.0684C28.0044 18.826 27.8285 18.6385 27.4143 18.3654C27.1919 18.2188 26.8521 18.1748 26.6484 18.3286C26.1193 18.7282 25.8166 19.2368 25.6437 19.8662C25.4757 20.4788 26.0879 20.8025 26.7227 21.0858C27.2691 21.3295 28.4438 21.5504 29.1926 21.5755C32.1111 21.6733 34.4492 20.1636 36.0767 16.2693C36.368 19.6326 37.6078 21.5357 39.7621 21.5357C41.2023 21.5357 42.6463 19.6704 43.2778 17.8355C43.459 18.5834 43.7275 19.2339 44.0741 19.784C45.7339 22.4192 48.954 21.8522 50.5715 19.6144C51.0716 18.9229 51.1477 18.6746 51.1477 18.6746C51.3838 20.7873 53.082 21.5256 54.0542 21.5256C55.1432 21.5256 56.2674 21.0098 57.0555 19.2322C57.1479 19.4251 57.2488 19.6095 57.3589 19.784C59.0187 22.4192 62.239 21.8522 63.8565 19.6144C63.9329 19.5093 63.9991 19.4144 64.0568 19.3287L64.1042 20.7166L62.615 22.0851C60.1188 24.3775 58.2227 26.1159 58.0832 28.1408C57.9055 30.7225 59.9942 31.6821 61.5766 31.8078C63.254 31.9412 64.6932 31.012 65.5763 29.7115C66.3536 28.5667 66.8625 26.103 66.825 23.6698C66.8103 22.6953 66.7855 21.4564 66.7665 20.1282C67.6428 19.1087 68.6301 17.8199 69.5391 16.3117C70.5297 14.668 71.5913 12.4605 72.1349 10.7425C72.1349 10.7425 73.0572 10.7506 74.0417 10.686C74.3565 10.6653 74.4471 10.7299 74.3887 10.9609C74.3185 11.2405 73.145 15.7752 74.2161 18.7961C74.9489 20.8643 76.6013 21.5293 77.5809 21.5293C78.7279 21.5293 79.8249 20.6616 80.4128 19.3733C80.4838 19.5168 80.5578 19.6557 80.6387 19.7843C82.2985 22.4194 85.5074 21.8487 87.1363 19.6144C87.504 19.1102 87.7126 18.6746 87.7126 18.6746C88.062 20.8614 89.7593 21.5368 90.7315 21.5368C91.744 21.5368 92.7052 21.1207 93.4848 19.2722C93.5177 20.0862 93.5688 20.7517 93.6498 20.9614C93.6991 21.09 93.9869 21.2509 94.1962 21.3287C95.1227 21.6728 96.0672 21.5102 96.4169 21.4394C96.659 21.3902 96.8479 21.1955 96.8738 20.6931C96.9418 19.3733 96.9001 17.1559 97.2993 15.5078C97.9695 12.7423 98.5948 11.6695 98.8914 11.1385C99.0574 10.8407 99.2445 10.7917 99.2514 11.1066C99.2654 11.744 99.297 13.615 99.5567 16.1293C99.7475 17.9781 100.002 19.0711 100.198 19.4172C100.757 20.4062 101.447 20.4531 102.009 20.4531C102.366 20.4531 103.114 20.3542 103.047 19.7247C103.014 19.4179 103.071 17.5216 103.732 14.797C104.164 13.0176 104.883 11.4102 105.142 10.8223C105.238 10.6055 105.283 10.7763 105.281 10.8097C105.226 12.035 105.104 16.0429 105.602 18.235C106.278 21.2045 108.231 21.5368 108.912 21.5368C110.365 21.5368 111.554 20.4291 111.954 17.5144C112.051 16.8128 111.908 16.2713 111.48 16.2713Z" fill="white"/>
</svg>
