<svg width="20" height="20" viewBox="0 0 20 20" fill="none" xmlns="http://www.w3.org/2000/svg">
<path d="M19.5625 18.549L14.1359 13.0937C15.4332 11.5284 16.0777 9.52356 15.9355 7.49553C15.7933 5.4675 14.8753 3.5722 13.3723 2.20328C11.8692 0.834362 9.89659 0.0970505 7.86413 0.144489C5.83168 0.191927 3.89561 1.02047 2.45805 2.45802C1.0205 3.89558 0.191958 5.83165 0.14452 7.8641C0.097081 9.89655 0.834393 11.8692 2.20331 13.3722C3.57223 14.8753 5.46754 15.7933 7.49556 15.9355C9.52359 16.0777 11.5285 15.4332 13.0937 14.1359L18.5491 19.5625L19.5625 18.549ZM1.59375 8.06247C1.59375 6.78307 1.97313 5.5324 2.68393 4.46862C3.39472 3.40484 4.405 2.57573 5.58701 2.08612C6.76902 1.59652 8.06967 1.46841 9.32449 1.71801C10.5793 1.96761 11.7319 2.5837 12.6366 3.48837C13.5413 4.39304 14.1574 5.54566 14.407 6.80048C14.6566 8.05529 14.5285 9.35594 14.0388 10.538C13.5492 11.72 12.7201 12.7302 11.6563 13.441C10.5926 14.1518 9.3419 14.5312 8.0625 14.5312C6.34688 14.5312 4.70153 13.8497 3.4884 12.6366C2.27527 11.4234 1.59375 9.77809 1.59375 8.06247Z" fill="black"/>
</svg>
